{"title":"Killer Elite [2011] [ENG] [BRRip] XviD AC3 - {RedDragon}","uid":6912702,"size":733136480,"categoryP":"video","categoryS":"movies","magnet":"?xt=urn:btih:d51d88ac78e2a32ba4dad5bf6a8b596759353850&amp;dn=Killer+Elite+%5B2011%5D+%5BENG%5D+%5BBRRip%5D+XviD+AC3+-+%7BRedDragon%7D&amp;tr=udp%3A%2F%2Ftracker.openbittorrent.com%3A80&amp;tr=udp%3A%2F%2Fopen.demonii.com%3A1337&amp;tr=udp%3A%2F%2Ftracker.coppersurfer.tk%3A6969&amp;tr=udp%3A%2F%2Fexodus.desync.com%3A6969","seeders":0,"leechers":1,"uploader":"RedDr4gon","files":5,"time":1324857921,"description":" [b]Ã‚Âº   Poster    Ã‚Âº\n \n [img]http://collider.com/wp-content/uploads/killer-elite-movie-poster-01.jpg[img]\n \n \n Ã‚Âº   General.    Ã‚Âº\n \n\nComplete name          : Killer Elite [2011].[ENG].[BRRip].XviD.AC3 -{RedDragon}.avi\nFormat                 : MPEG-4\nFormat profile         : Base Media / Version 2\nCodec ID               : mp42\nFile size              : 699 MiB\nDuration               : 1h 56mn\nOverall bit rate       : 838 Kbps\nEncoded date           : UTC 2011-12-26 07:42:04\nTagged date            : UTC 2011-12-26 07:48:31\nLanguage               : English\nIMDb                   : http://www.imdb.com/title/tt1448755/\nIMDb Rating            : 6.6/10\n\n \n Ã‚Âº    Video.     Ã‚Âº\n\n\nID                               : 1\nFormat                           : MPEG-4 Visual\nFormat profile                   : Simple@L1\nFormat settings, BVOP            : No\nFormat settings, QPel            : No\nFormat settings, GMC             : No warppoints\nFormat settings, Matrix          : Default (H.263)\nCodec ID                         : 20\nDuration                         : 1h 56mn\nBit rate mode                    : Variable\nBit rate                         : 675 Kbps\nMaximum bit rate                 : 1 596 Kbps\nWidth                            : 720 pixels\nHeight                           : 246 pixels\nDisplay aspect ratio             : 2.927\nFrame rate mode                  : Constant\nFrame rate                       : 29.970 fps\nColor space                      : YUV\nChroma subsampling               : 4:2:0\nBit depth                        : 8 bits\nScan type                        : Progressive\nBits/(Pixel*Frame)               : 0.127\nStream size                      : 563 MiB (81%)\nWriting library                  : Lavc52.94.3\nEncoded date                     : UTC 2011-12-26 07:42:04\nTagged date                      : UTC 2011-12-26 07:48:31\n\n\n Ã‚Âº    Audio.     Ã‚Âº\n \n\nID                               : 2\nFormat                           : AAC\nFormat/Info                      : Advanced Audio Codec\nFormat version                   : Version 4\nFormat profile                   : LC\nFormat settings, SBR             : No\nCodec ID                         : 40\nDuration                         : 1h 56mn\nBit rate mode                    : Variable\nBit rate                         : 160 Kbps\nMaximum bit rate                 : 239 Kbps\nChannel(s)                       : 2 channels\nChannel positions                : Front: L R\nSampling rate                    : 48.0 KHz\nStream size                      : 134 MiB (19%)\nEncoded date                     : UTC 2011-12-26 07:42:04\nTagged date                      : UTC 2011-12-26 07:48:31[/b]\n","torrent":{"xt":"urn:btih:d51d88ac78e2a32ba4dad5bf6a8b596759353850","amp;dn":"Killer+Elite+%5B2011%5D+%5BENG%5D+%5BBRRip%5D+XviD+AC3+-+%7BRedDragon%7D","amp;tr":["udp%3A%2F%2Ftracker.openbittorrent.com%3A80","udp%3A%2F%2Fopen.demonii.com%3A1337","udp%3A%2F%2Ftracker.coppersurfer.tk%3A6969","udp%3A%2F%2Fexodus.desync.com%3A6969"],"infoHash":"d51d88ac78e2a32ba4dad5bf6a8b596759353850","infoHashBuffer":{"type":"Buffer","data":[213,29,136,172,120,226,163,43,164,218,213,191,106,139,89,103,89,53,56,80]},"announce":[],"urlList":[]}}